<svg width="16" height="16" viewBox="0 0 16 16" fill="none" xmlns="http://www.w3.org/2000/svg">
<path fill-rule="evenodd" clip-rule="evenodd" d="M4.09765 0.414719C4.325 0.0453019 4.87699 -0.105048 5.33223 0.0777918L5.33438 0.0786279L5.35966 0.0881138C5.38531 0.0975234 5.42822 0.112748 5.48722 0.131921C5.60536 0.170315 5.78706 0.224236 6.02297 0.278999C6.49586 0.388771 7.17878 0.500124 8.0001 0.500124C8.82142 0.500124 9.50435 0.388771 9.97724 0.278999C10.2132 0.224236 10.3948 0.170315 10.513 0.131922C10.572 0.112748 10.6149 0.0975236 10.6405 0.088114L10.6658 0.0786282L10.668 0.0778015C11.1232 -0.105053 11.6752 0.0452962 11.9026 0.41472C12.1305 0.785173 11.9447 1.23606 11.4887 1.42128C11.489 1.42118 11.4897 1.42087 11.0975 0.783436L11.4887 1.42128L11.4876 1.42175L11.485 1.4228L11.4783 1.42546L11.4595 1.43281C11.4446 1.43859 11.4248 1.44609 11.4004 1.45506C11.3515 1.47299 11.2838 1.49682 11.1986 1.52452C11.0283 1.57987 10.7869 1.65094 10.4844 1.72117C9.88039 1.86137 9.02489 2 8.0001 2C6.97532 2 6.11981 1.86137 5.51581 1.72117C5.21327 1.65094 4.9719 1.57987 4.80159 1.52452C4.71636 1.49682 4.6487 1.47299 4.59983 1.45506C4.57538 1.44609 4.55562 1.43859 4.54068 1.43281L4.5219 1.42545L4.51525 1.4228L4.51262 1.42174L4.51045 1.42087L4.92326 0.750102C4.51413 1.41489 4.51024 1.42071 4.51045 1.42086L4.51045 1.42087C4.05448 1.23564 3.86967 0.785172 4.09765 0.414719ZM14.9345 2.4547C15.1102 2.8354 14.9203 3.27628 14.5103 3.43944C14.5104 3.43939 14.5103 3.43944 14.1921 2.75012L14.5103 3.43944L14.506 3.44113L14.4963 3.44496L14.461 3.45876C14.4306 3.4706 14.3864 3.48759 14.3299 3.50902C14.2168 3.55184 14.0536 3.61243 13.85 3.68484C13.4432 3.82949 12.8724 4.02224 12.2142 4.21523C10.9186 4.59515 9.20578 5 7.73073 5C6.24717 5 4.6637 4.59165 3.49086 4.20728C2.89601 4.01234 2.38909 3.81757 2.02998 3.67118C1.85018 3.59788 1.70676 3.53644 1.60718 3.4928C1.55736 3.47098 1.51847 3.45358 1.4914 3.44136L1.45979 3.42698L1.45085 3.42287L1.44686 3.42103L1.80779 2.75012C1.44659 3.42091 1.44672 3.42097 1.44686 3.42103C1.04789 3.2358 0.885903 2.78519 1.08539 2.41473C1.28482 2.04437 1.76977 1.89419 2.16868 2.07919L2.1745 2.08187L2.19806 2.09258C2.21964 2.10233 2.25278 2.11716 2.29657 2.13634C2.38417 2.17473 2.51419 2.23047 2.67933 2.29779C3.01011 2.43263 3.47913 2.61284 4.02848 2.79288C5.14405 3.15848 6.52205 3.50008 7.73073 3.50008C8.94793 3.50008 10.4658 3.15498 11.7278 2.78494C12.3485 2.60294 12.8882 2.42071 13.2723 2.28413C13.4641 2.21593 13.6164 2.15933 13.7199 2.12013C13.7717 2.10054 13.8112 2.08531 13.8373 2.07518L13.8661 2.06389L13.8727 2.06129L13.874 2.0608C14.2839 1.89774 14.7588 2.07404 14.9345 2.4547ZM7.16658 13.4966L7.16025 6.75648C7.16025 6.33869 7.53335 6 7.99358 6C8.45381 6 8.82691 6.33869 8.82691 6.75648L8.83324 13.4968L11.6461 10.8704C12.0054 10.6094 12.5299 10.6623 12.8174 10.9886C13.1049 11.3148 13.0466 11.7908 12.6872 12.0518L8.52058 15.8342C8.21623 16.0553 7.78377 16.0553 7.47943 15.8342L3.31278 12.0518C2.9534 11.7908 2.89513 11.3148 3.18264 10.9886C3.47015 10.6623 3.99455 10.6094 4.35394 10.8704L7.16658 13.4966Z" fill="#9DAAB6"/>
</svg>
