<svg xmlns="http://www.w3.org/2000/svg" version="1.1" xmlns:xlink="http://www.w3.org/1999/xlink" xmlns:svgjs="http://svgjs.dev/svgjs" width="1000" height="623" viewBox="0 0 1000 623"><g transform="matrix(1,0,0,1,-0.6060606060606233,0.2522267206477409)"><svg viewBox="0 0 396 247" data-background-color="#fdf8f1" preserveAspectRatio="xMidYMid meet" height="623" width="1000" xmlns="http://www.w3.org/2000/svg" xmlns:xlink="http://www.w3.org/1999/xlink"><g id="tight-bounds" transform="matrix(1,0,0,1,0.2400000000000091,-0.09999999999999432)"><svg viewBox="0 0 395.52 247.2" height="247.2" width="395.52"><g><svg></svg></g><g><svg viewBox="0 0 395.52 247.2" height="247.2" width="395.52"><g transform="matrix(1,0,0,1,123.66993967149588,37.08)"><svg viewBox="0 0 148.18012065700822 173.04" height="173.04" width="148.18012065700822"><g><svg viewBox="0 0 148.18012065700822 173.04" height="173.04" width="148.18012065700822"><g><svg viewBox="0 0 148.18012065700822 173.04" height="173.04" width="148.18012065700822"><g><svg viewBox="0 0 148.18012065700822 173.04" height="173.04" width="148.18012065700822"><g id="textblocktransform"><svg viewBox="0 0 148.18012065700822 173.04" height="173.04" width="148.18012065700822" id="textblock"><g><svg viewBox="0 0 148.18012065700822 173.04" height="173.04" width="148.18012065700822"><g transform="matrix(1,0,0,1,0,0)"><svg width="148.18012065700822" viewBox="-2.799999952316284 -41.349998474121094 38.97999954223633 45.349998474121094" height="173.04" data-palette-color="#fa4238"><path d="M1.2 0L13.43-37.35 19.12-37.35 32.18 0 27.76 0 24.05-10.96 9.01-10.96 5.49 0 1.2 0ZM10.13-14.45L22.88-14.45 16.28-34.06 15.53-31.27 10.13-14.45Z" opacity="1" transform="matrix(1,0,0,1,0,0)" fill="#fa4238" class="undefined-text-0" data-fill-palette-color="primary" id="text-0"></path></svg></g></svg></g></svg></g></svg></g></svg></g></svg></g></svg></g><g mask="url(#c332f37b-f2a6-4dfa-946d-94e6d7c7856f)"><g transform="matrix(3.2390832402508836, 0, 0, 3.2390832402508836, 69.99348529213309, 1)"><svg xmlns="http://www.w3.org/2000/svg" xmlns:xlink="http://www.w3.org/1999/xlink" version="1.1" x="0" y="0" viewBox="11.110998153686523 13.187566757202148 78.89054107666016 75.70043182373047" enable-background="new 0 0 100 100" xml:space="preserve" height="75.70043182373047" width="78.89054107666016" class="icon-none" data-fill-palette-color="accent" id="none"><g fill="#fa4238" data-fill-palette-color="accent"><g fill="#fa4238" data-fill-palette-color="accent"><g fill="#fa4238" data-fill-palette-color="accent"><path d="M60.609 39.391l3.531 3.539L50 57.07l-7.07 7.068-7.07-7.068 17.68-17.682C55.49 41.35 58.65 41.35 60.609 39.391z" fill="#fa4238" data-fill-palette-color="accent"></path><path d="M88.891 81.82l-7.07 7.068-7.801-7.8c-13.229 9.761-33.52 8.71-45.669-2.37l-10.17 10.17-7.07-7.068 14.14-14.142 3.54 3.53c9.73 10.16 26.69 11.74 38.13 3.561l1.46-0.229-1.39-0.479L50 57.07l8.83-5.312 15.23 15.23 0.479 1.39 0.229-1.46c9.351-13.68 5.83-32.351-7.85-41.688-11.439-8.182-28.4-6.602-38.13 3.56l-3.54-3.54c13.28-14.63 36.189-16.16 51.3-3.45 15.841 13.17 18 36.681 4.841 52.521L88.891 81.82z" fill="#fa4238" data-fill-palette-color="accent"></path></g></g></g></svg></g></g><mask id="c332f37b-f2a6-4dfa-946d-94e6d7c7856f"><rect width="640" height="400" fill="white"></rect><g transform="matrix(1,0,0,1,123.66993967149588,37.08)"><svg viewBox="0 0 148.18012065700822 173.04" height="173.04" width="148.18012065700822"><g><svg viewBox="0 0 148.18012065700822 173.04" height="173.04" width="148.18012065700822"><g><svg viewBox="0 0 148.18012065700822 173.04" height="173.04" width="148.18012065700822"><g><svg viewBox="0 0 148.18012065700822 173.04" height="173.04" width="148.18012065700822"><g id="SvgjsG1100"><svg viewBox="0 0 148.18012065700822 173.04" height="173.04" width="148.18012065700822" id="SvgjsSvg1099"><g><svg viewBox="0 0 148.18012065700822 173.04" height="173.04" width="148.18012065700822"><g transform="matrix(1,0,0,1,0,0)"><svg width="148.18012065700822" viewBox="-2.799999952316284 -41.349998474121094 38.97999954223633 45.349998474121094" height="173.04" data-palette-color="#fa4238"><path d="M1.2 0L13.43-37.35 19.12-37.35 32.18 0 27.76 0 24.05-10.96 9.01-10.96 5.49 0 1.2 0ZM10.13-14.45L22.88-14.45 16.28-34.06 15.53-31.27 10.13-14.45Z" opacity="1" transform="matrix(1,0,0,1,0,0)" fill="#fa4238" class="undefined-text-0" data-fill-palette-color="primary" id="SvgjsPath1098" stroke-width="7" stroke="black" stroke-linejoin="round"></path></svg></g></svg></g></svg></g></svg></g></svg></g></svg></g></svg></g></mask></svg></g><defs></defs></svg><rect width="395.52" height="247.2" fill="none" stroke="none" visibility="hidden"></rect></g></svg></g></svg>